static_grf.mot
version=1
nRows=27
nColumns 19
inDegrees=yes
endheader
time	1_ground_force_vx	1_ground_force_vy	1_ground_force_vz	1_ground_force_px	1_ground_force_py	1_ground_force_pz	1_ground_torque_x	1_ground_torque_y	1_ground_torque_z	2_ground_force_vx	2_ground_force_vy	2_ground_force_vz	2_ground_force_px	2_ground_force_py	2_ground_force_pz	2_ground_torque_x	2_ground_torque_y	2_ground_torque_z
            0.286500	            2.464926	          269.769562	          -20.218875	           -0.335562	            0.006208	           -0.406096	           -0.000325	           -0.035623	            0.002670	           -8.725373	          291.218099	           22.582735	           -0.303440	            0.005397	           -0.700287	            0.021468	           -0.716504	           -0.055562
            0.287000	            2.418430	          270.851934	          -20.397547	           -0.335007	            0.006205	           -0.405451	            0.000079	            0.008867	           -0.000668	           -8.862497	          290.295990	           22.814150	           -0.303015	            0.005398	           -0.700057	            0.021763	           -0.712862	           -0.056023
            0.287500	            2.326762	          270.131050	          -20.446267	           -0.335297	            0.006205	           -0.405582	           -0.000026	           -0.002968	            0.000225	           -8.911464	          290.849309	           22.534572	           -0.303021	            0.005399	           -0.700378	            0.020832	           -0.679903	           -0.052678
            0.288000	            2.326792	          271.212251	          -20.349918	           -0.335306	            0.006204	           -0.405312	           -0.000030	           -0.003514	            0.000264	           -8.956156	          290.295317	           22.908046	           -0.303261	            0.005397	           -0.699987	            0.023419	           -0.759078	           -0.059901
            0.288500	            2.143501	          271.392315	          -20.302833	           -0.334800	            0.006205	           -0.405347	           -0.000514	           -0.065078	            0.004868	           -8.962261	          291.953649	           22.632390	           -0.302747	            0.005402	           -0.700815	            0.021678	           -0.706188	           -0.054744
            0.289000	            2.464273	          270.851942	          -20.397661	           -0.335280	            0.006207	           -0.405936	            0.000040	            0.004389	           -0.000331	           -9.102187	          291.769335	           22.537937	           -0.302484	            0.005403	           -0.700736	            0.020162	           -0.646282	           -0.049923
            0.289500	            2.418136	          271.212858	          -20.487713	           -0.335141	            0.006206	           -0.405610	            0.000356	            0.039963	           -0.003019	           -9.005123	          290.848636	           22.628468	           -0.302761	            0.005401	           -0.700636	            0.021052	           -0.679950	           -0.052901
            0.290000	            2.188757	          272.114173	          -20.483279	           -0.334727	            0.006204	           -0.405114	           -0.000410	           -0.050925	            0.003833	           -9.051993	          290.848634	           22.581560	           -0.302628	            0.005401	           -0.700376	            0.021594	           -0.693822	           -0.053869
            0.290500	            2.372227	          271.573381	          -20.486053	           -0.334817	            0.006205	           -0.405343	           -0.000021	           -0.002353	            0.000178	           -9.001217	          289.744400	           22.436813	           -0.302699	            0.005398	           -0.699672	            0.021901	           -0.704973	           -0.054591
            0.291000	            2.280916	          271.392538	          -20.349031	           -0.335264	            0.006205	           -0.405560	           -0.000556	           -0.066212	            0.004965	           -9.150325	          292.137113	           22.633127	           -0.302259	            0.005406	           -0.701415	            0.021162	           -0.675628	           -0.052344
            0.291500	            2.464435	          271.212081	          -20.304403	           -0.335223	            0.006207	           -0.405860	           -0.000226	           -0.024880	            0.001863	           -9.005664	          291.031772	           22.910694	           -0.302324	            0.005402	           -0.700397	            0.021300	           -0.688328	           -0.054187
            0.292000	            2.602095	          270.491044	          -20.307836	           -0.336010	            0.006207	           -0.406050	            0.000395	            0.041049	           -0.003082	           -9.102749	          291.952639	           22.773235	           -0.302291	            0.005404	           -0.701006	            0.022369	           -0.717429	           -0.055962
            0.292500	            2.142884	          271.032963	          -20.579515	           -0.335269	            0.006206	           -0.405657	           -0.000135	           -0.017056	            0.001295	           -9.242051	          291.584520	           22.584268	           -0.301927	            0.005405	           -0.700966	            0.022971	           -0.724718	           -0.056132
            0.293000	            2.235157	          270.311132	          -20.399411	           -0.335377	            0.006207	           -0.405960	            0.000150	            0.018111	           -0.001367	           -9.098117	          290.663761	           22.721707	           -0.301949	            0.005403	           -0.700352	            0.022844	           -0.729823	           -0.057052
            0.293500	            2.326255	          271.032998	          -20.579970	           -0.335429	            0.006208	           -0.406139	            0.000448	            0.052229	           -0.003966	           -8.910155	          290.481134	           22.486330	           -0.302119	            0.005403	           -0.700526	            0.023094	           -0.752905	           -0.058283
            0.294000	            2.418136	          271.212858	          -20.487713	           -0.335070	            0.006207	           -0.405887	            0.000431	            0.048353	           -0.003653	           -9.241366	          291.400212	           22.630539	           -0.301976	            0.005405	           -0.700949	            0.022218	           -0.700570	           -0.054407
            0.294500	            2.326238	          271.753865	          -20.531022	           -0.335234	            0.006204	           -0.405179	            0.000193	            0.022539	           -0.001703	           -9.097473	          290.479787	           22.674122	           -0.302068	            0.005404	           -0.700659	            0.021729	           -0.693792	           -0.054156
            0.295000	            2.280445	          270.852693	          -20.580629	           -0.335448	            0.006209	           -0.406311	            0.000077	            0.009113	           -0.000692	           -9.099570	          291.033107	           22.441453	           -0.302121	            0.005404	           -0.700843	            0.023035	           -0.736733	           -0.056809
            0.295500	            2.096486	          271.574507	          -20.760506	           -0.335063	            0.006206	           -0.405661	            0.000139	            0.017944	           -0.001372	           -9.191131	          290.479114	           22.768018	           -0.301997	            0.005403	           -0.700463	            0.022563	           -0.713097	           -0.055893
            0.296000	            2.327343	          271.932134	          -20.071690	           -0.334564	            0.006204	           -0.405149	           -0.000408	           -0.047707	            0.003521	           -9.098240	          290.664765	           22.440138	           -0.302007	            0.005403	           -0.700478	            0.024075	           -0.769140	           -0.059380
            0.296500	            2.189017	          271.933483	          -20.392340	           -0.335116	            0.006204	           -0.405265	            0.000255	            0.031730	           -0.002379	           -9.143055	          290.111839	           22.532043	           -0.301951	            0.005403	           -0.700292	            0.023271	           -0.738397	           -0.057349
            0.297000	            2.371934	          271.934305	          -20.576219	           -0.334805	            0.006205	           -0.405363	            0.000462	            0.052961	           -0.004007	           -9.096870	          290.296149	           22.532681	           -0.301442	            0.005405	           -0.700373	            0.024492	           -0.781595	           -0.060667
            0.297500	            2.234878	          271.212626	          -20.441402	           -0.335171	            0.006206	           -0.405810	            0.000301	            0.036488	           -0.002750	           -9.329708	          289.926352	           22.719179	           -0.302065	            0.005404	           -0.700661	            0.022948	           -0.713128	           -0.055882
            0.298000	            2.097951	          271.031381	          -20.212554	           -0.335137	            0.006206	           -0.405599	           -0.000140	           -0.018051	            0.001346	           -9.189220	          289.927362	           22.578334	           -0.301926	            0.005402	           -0.700076	            0.023835	           -0.752026	           -0.058565
            0.298500	            2.234423	          271.213413	          -20.624825	           -0.335515	            0.006206	           -0.405700	            0.000362	            0.043911	           -0.003339	           -9.284269	          290.295472	           22.532760	           -0.301391	            0.005405	           -0.700312	            0.023241	           -0.726684	           -0.056405
            0.299000	            2.050985	          271.573908	          -20.622824	           -0.335274	            0.006206	           -0.405639	            0.000222	            0.029341	           -0.002228	           -9.189885	          290.111502	           22.578991	           -0.301613	            0.005406	           -0.700804	            0.024994	           -0.789013	           -0.061408
            0.299500	            2.234764	          271.212823	          -20.487258	           -0.335120	            0.006206	           -0.405612	           -0.000207	           -0.025144	            0.001899	           -9.283002	          289.927693	           22.390662	           -0.301603	            0.005405	           -0.700528	            0.024066	           -0.751623	           -0.058047
